# xmcd
#
# Track frame offsets: 
#        150
#        13158
#        34295
#        57532
#        76376
#        90683
#        102894
#        116861
#        133675
#        151422
#        179055
#        194823
#        213396
#        231243
#        245217
#
# Disc length: 3505 seconds
#
# Revision: 0
# Processed by: cddbd v1.5.2PL0 Copyright (c) Steve Scherf et al.
# Submitted via: ExactAudioCopy v0.99pb5
#
DISCID=e50daf0f
DTITLE=Vivian Vance Kelly - Rock My Soul
DYEAR=2011
DGENRE=Blues
TTITLE0=You Win Again
TTITLE1=Love Of Mine
TTITLE2=Love and Happiness
TTITLE3=Don't Hurt No More
TTITLE4=Simple As This
TTITLE5=Clean Up Woman
TTITLE6=Breakin' Up Somebody Home
TTITLE7=Furhter On Up The Road
TTITLE8=Let It Rock
TTITLE9=Last Two Dollars
TTITLE10=Can I Change My Mind
TTITLE11=Something You Get
TTITLE12=I Feel So Bad
TTITLE13=You Hurt Me So Bad
TTITLE14=He's Crazy
EXTD=
EXTT0=
EXTT1=
EXTT2=
EXTT3=
EXTT4=
EXTT5=
EXTT6=
EXTT7=
EXTT8=
EXTT9=
EXTT10=
EXTT11=
EXTT12=
EXTT13=
EXTT14=
PLAYORDER=
